<svg id="Group_65" data-name="Group 65" xmlns="http://www.w3.org/2000/svg" xmlns:xlink="http://www.w3.org/1999/xlink" width="62.847" height="62.858" viewBox="0 0 62.847 62.858">
  <defs>
    <clipPath id="clip-path">
      <rect id="Rectangle_87" data-name="Rectangle 87" width="62.847" height="62.858" fill="#342110"/>
    </clipPath>
  </defs>
  <g id="Group_64" data-name="Group 64" clip-path="url(#clip-path)">
    <path id="Path_69" data-name="Path 69" d="M0,181.919a2.18,2.18,0,0,1,2.223-1.282q23.663.028,47.326.013c1.607,0,2.258.656,2.257,2.266,0,1.413,0,1.413,1.427,1.413,1.328,0,2.657,0,3.985,0a5.509,5.509,0,0,1,5.629,5.677,16.639,16.639,0,0,1-13.355,16.2,16.041,16.041,0,0,1-3.961.279.993.993,0,0,0-.969.486,29.916,29.916,0,0,1-2.49,3.1c.23.222.466.132.674.132,2.33.008,4.659,0,6.989.006a1.887,1.887,0,0,1,1.773,2.946,15.031,15.031,0,0,1-11.289,8.047c-.119.02-.236.057-.353.087H11.9a18.029,18.029,0,0,1-4.609-1.37A15.364,15.364,0,0,1,0,212.707v-1.227A2.16,2.16,0,0,1,2.223,210.2c2.266.048,4.534.017,6.8.011.206,0,.437.074.668-.117-.379-.438-.749-.844-1.1-1.269a39.122,39.122,0,0,1-8.022-18.5C.311,188.8.187,187.257,0,185.721Zm58.984,8.733c.337-1.788-.735-2.646-2.477-2.568-1.2.054-2.411.01-3.616.01-1.4,0-1.381,0-1.574,1.363a42.253,42.253,0,0,1-3.61,12.163c-.136.289-.486.627-.323.873.209.316.64.053.966,0a12.716,12.716,0,0,0,10.633-11.843" transform="translate(0 -158.436)" fill="#342110"/>
    <path id="Path_70" data-name="Path 70" d="M99.8,12.953a7.235,7.235,0,0,1-2.03,4.917,1.9,1.9,0,1,1-2.835-2.54c1.435-1.841,1.373-3.264-.218-5.015A7.122,7.122,0,0,1,94.867.685a1.931,1.931,0,0,1,2.741-.2,1.926,1.926,0,0,1,.139,2.7c-1.423,1.84-1.356,3.283.217,5.019A7.3,7.3,0,0,1,99.8,12.953" transform="translate(-81.5 -0.002)" fill="#342110"/>
    <path id="Path_71" data-name="Path 71" d="M189.621,12.937a7.262,7.262,0,0,1-2.017,4.917,1.9,1.9,0,1,1-2.862-2.51c1.443-1.866,1.389-3.282-.19-5.016A7.119,7.119,0,0,1,184.669.7a1.935,1.935,0,0,1,2.74-.233,1.935,1.935,0,0,1,.129,2.745c-1.377,1.765-1.322,3.283.189,4.926a7.379,7.379,0,0,1,1.894,4.8" transform="translate(-160.276 0)" fill="#342110"/>
    <path id="Path_72" data-name="Path 72" d="M276.144,18.514a1.886,1.886,0,0,1-1.88-1.032,1.814,1.814,0,0,1,.226-2.066,3.955,3.955,0,0,0,1.053-2.228,3.71,3.71,0,0,0-1.189-2.844,7.1,7.1,0,0,1,.055-9.582,1.953,1.953,0,0,1,2.782-.293,1.944,1.944,0,0,1,.106,2.793c-1.367,1.741-1.29,3.236.251,4.921a7.125,7.125,0,0,1-.142,9.675,1.854,1.854,0,0,1-1.262.656" transform="translate(-239.027 -0.011)" fill="#342110"/>
  </g>
</svg>
