<svg xmlns="http://www.w3.org/2000/svg" xmlns:xlink="http://www.w3.org/1999/xlink" width="55.696" height="70.929" viewBox="0 0 55.696 70.929">
  <defs>
    <clipPath id="clip-path">
      <rect id="Rectangle_75" data-name="Rectangle 75" width="55.696" height="70.929" fill="#342110"/>
    </clipPath>
  </defs>
  <g id="Group_34" data-name="Group 34" clip-path="url(#clip-path)">
    <path id="Path_64" data-name="Path 64" d="M55.531,24.761A28.211,28.211,0,0,0,27.764,0c-2.08.295-4.184.459-6.23.9C5.881,4.3-5.029,22.208,2.369,37.546c5.894,12.226,14.44,22.517,23.555,32.4,1.271,1.378,2.639,1.288,3.982-.178,2.573-2.81,5.143-5.634,7.576-8.563C43.191,54.337,48.575,47.227,52.5,39.157c2.2-4.527,3.715-9.163,3.033-14.4M27.908,38.711A10.977,10.977,0,0,1,17.1,27.976,10.752,10.752,0,0,1,28.008,17.253,10.571,10.571,0,0,1,38.641,27.989,10.762,10.762,0,0,1,27.908,38.711" transform="translate(0)" fill="#342110"/>
  </g>
</svg>
