<svg xmlns="http://www.w3.org/2000/svg" width="146.986" height="104.483" viewBox="0 0 146.986 104.483">
  <g id="RR_new_logo" data-name="RR new logo" transform="translate(0.009)">
    <path id="Path_26" data-name="Path 26" d="M2.177,214.164a9.445,9.445,0,0,0,3.95,3.037,16.78,16.78,0,0,0,6,1.045,17.431,17.431,0,0,0,9.606-2.707,11.115,11.115,0,0,0,5.059-8.167,48.189,48.189,0,0,0,12.879,1.75h0a43.892,43.892,0,0,0,14.91-2.52l.019-.005.017-.008a6.671,6.671,0,0,0,3.824-7.859,10.346,10.346,0,0,0-3.158-5.216,8.576,8.576,0,0,0-5.658-2.313,7.385,7.385,0,0,0-2.36.391c-4.657,1.516-8.451,4.6-12.123,7.579-1.136.924-2.313,1.879-3.491,2.765a11.321,11.321,0,0,1-1.139.063h0c-3.373,0-3.906-1.854-4.646-4.415a18.1,18.1,0,0,0-1.07-3.015l-.226-.465-.369.366c-1.659,1.645-3.639,4.052-3.664,6.192a12.669,12.669,0,0,0,.955,4.187c.8,2.049.905,3.689.319,4.869-.787,1.6-2.7,2.154-4.1,2.558l-.385.113a15.543,15.543,0,0,1-4.61.781,16.334,16.334,0,0,1-3.392-.391,5.836,5.836,0,0,1-3.54-2.762,5.733,5.733,0,0,1-.429-1.208c-.371-1.615-.264-4.1.33-7.84.085-.539.168-1.043.248-1.518.4-2.434.649-3.906.314-4.7a2.327,2.327,0,0,0-1.015-1.045l-.4-.253-.2.327a36.1,36.1,0,0,0-3.892,8.852c-.759,3-1.318,5.972.217,9.471a8.738,8.738,0,0,0,1.21,2.058ZM37.08,202.8c3.048-2.605,7.5-5.216,11.477-5.216a7.465,7.465,0,0,1,6.308,3.279,56.785,56.785,0,0,1-14.249,2.214,19.41,19.41,0,0,1-3.535-.281Z" transform="translate(0 -138.604)" fill="#371a08"/>
    <path id="Path_27" data-name="Path 27" d="M259.341,175.969a124.088,124.088,0,0,0,13.328-.6l.168-.019.1-.14A12.576,12.576,0,0,0,275,167.119a14.787,14.787,0,0,0-2.913-7.821,1.016,1.016,0,0,0-.814-.4,1.04,1.04,0,0,0-.867.462c-2.468,3.683-1.2,6.828.377,10.1a32.761,32.761,0,0,0-4.553-.253c-2.646,0-5.714.16-8.962.327-3.507.182-7.13.369-10.5.369h0c-5.287,0-12.431-.407-13.46-3.909a53.479,53.479,0,0,1-.842-8.134c-.5-7.779-.922-12.5-2.619-12.5-.74,0-1.463.908-2.349,2.938a2.551,2.551,0,0,0-.173,1.466,56.617,56.617,0,0,1,.55,7.378c.151,4.377.305,8.9,1.612,12.472,1.527,4.173,4.374,6.211,8.715,6.225,1.524-.041,3.141-.063,4.946-.063,2.679,0,5.422.047,8.076.091s5.419.091,8.115.091Z" transform="translate(-164.771 -105.374)" fill="#371a08"/>
    <path id="Path_28" data-name="Path 28" d="M406.6,144.376c-1.29-.005-2.9-.014-4.19-6.569a.683.683,0,0,0-.668-.547.673.673,0,0,0-.5.217,7.576,7.576,0,0,0-.2,10.241c.415,2.355.671,4.753.916,7.078.231,2.192.47,4.456.85,6.693v.019a2.238,2.238,0,0,1-.184,1.915,1.775,1.775,0,0,1-1.4.523,8.221,8.221,0,0,1-4.393-1.722,5.553,5.553,0,0,1-2.561-3.76,1.164,1.164,0,0,0-1-1.125c-.041,0-.083-.006-.124-.006-.743,0-1.362.7-1.736,1.961-.7,2.349-.481,6.553,1.747,8.008a1.073,1.073,0,0,1,.5,1.029c-.525,3.722-5.532,7.705-12.148,7.705a10.374,10.374,0,0,1-3.9-.682l-.03-.011-.033-.006a1.4,1.4,0,0,0-.294-.033.928.928,0,0,0-.858.487,1.055,1.055,0,0,0,.149,1.1l.027.039.039.03c3.216,2.575,6.316,3.881,9.215,3.881,4.817,0,8.726-3.659,11.006-10.3a2.275,2.275,0,0,1,1.97-.721,15.392,15.392,0,0,1,1.73.138,16.292,16.292,0,0,0,1.8.14,2.719,2.719,0,0,0,3-2.019c1.824-3.6,1.554-7.287,1.293-10.849-.281-3.854-.545-7.491,1.857-10.712a1.205,1.205,0,0,0-.017-1.463,2.094,2.094,0,0,0-1.86-.677Z" transform="translate(-272.789 -99.502)" fill="#371a08"/>
    <path id="Path_29" data-name="Path 29" d="M517.016,163.722c-.462-4.55-1.045-9.171-1.606-13.639-.327-2.589-.663-5.268-.974-7.9v-.019a.91.91,0,0,0-.88-.834,1.015,1.015,0,0,0-.867.539c-3.441,5.634-2.19,12.131-.979,18.417.737,3.829,1.5,7.79,1.2,11.529l-.016.2.165.124a1.2,1.2,0,0,0,.732.27c2.374,0,3.219-8.533,3.227-8.621v-.066Z" transform="translate(-370.042 -102.452)" fill="#371a08"/>
    <path id="Path_30" data-name="Path 30" d="M323.969,267.259l-.08-.039H323.8a2.928,2.928,0,0,0-2.561,1.334c-.275.358-.407.514-.674.514-.531,0-1.532-.586-3.15-1.84l-.047-.039-.06-.019a1.634,1.634,0,0,0-.523-.091c-1.117,0-1.6,1.252-2.016,2.355-.11.292-.215.564-.325.806a1.678,1.678,0,0,0,.2,1.747,5.727,5.727,0,0,0,4.008,2.228,2.618,2.618,0,0,0,2.536-1.9,11.743,11.743,0,0,1,1.353.833,5.726,5.726,0,0,0,2.976,1.307,2.743,2.743,0,0,0,.371-.028l.132-.022.091-.1c1.263-1.441,1.769-2.663,1.546-3.738C327.35,269.055,325.62,268.046,323.969,267.259Z" transform="translate(-227.84 -193.61)" fill="#371a08"/>
    <path id="Path_31" data-name="Path 31" d="M103.145,168.142l-.008.03v.033c-.209,1.86,2.25,3.045,3.736,3.587a1.75,1.75,0,0,0,1.667-.253,5.793,5.793,0,0,0,2.074-3.119,1.13,1.13,0,0,0-.281-1.161c-1.708-1.637-3.037-2.4-4.179-2.4-1.367,0-2.379,1.106-3.007,3.285Z" transform="translate(-74.763 -119.51)" fill="#371a08"/>
    <path id="Path_32" data-name="Path 32" d="M6.223,7.138h0a2.615,2.615,0,0,0,2.534-1.9,11.981,11.981,0,0,1,1.353.834,5.726,5.726,0,0,0,2.976,1.307,2.36,2.36,0,0,0,.371-.03l.132-.022.088-.1c1.263-1.441,1.769-2.663,1.549-3.738-.314-1.51-2.041-2.52-3.692-3.307L11.455.14h-.088A2.928,2.928,0,0,0,8.806,1.474c-.275.358-.407.514-.674.514C7.6,1.989,6.6,1.4,4.985.149L4.936.11,4.875.091A1.634,1.634,0,0,0,4.353,0C3.236,0,2.76,1.252,2.339,2.355c-.113.3-.22.58-.336.825a1.637,1.637,0,0,0,.2,1.706,5.725,5.725,0,0,0,4.024,2.25Z" transform="translate(-1.347 0)" fill="#371a08"/>
    <path id="Path_33" data-name="Path 33" d="M7.609,48.419a10.013,10.013,0,0,0,3.859-.795c2.415-1.018,4.355-4.019,5.262-5.642.737,4.2,3.461,8.275,7.551,8.275a7.27,7.27,0,0,0,3.224-.817l.017-.008A16.1,16.1,0,0,0,32.1,45.886c.333-.366.5-.542.633-.542a6.175,6.175,0,0,1,1.813,1.073c.809.558,1.89,1.3,3.447,2.294-1.29,1.243-2.553,4.423-2.187,5.8a.947.947,0,0,0,.938.778,1.522,1.522,0,0,0,.242-.022,1.54,1.54,0,0,0,1.169-1.07c1.065-3.4,4.148-4.919,10-4.919,2.531,0,5.383.275,8.143.539,2.842.275,5.777.556,8.467.556,4.2,0,9.237-.575,11.411-4.93,1.917,2.316,5.246,3.485,8.473,4.616a40.535,40.535,0,0,1,4.33,1.7,1.791,1.791,0,0,0,.784.2c.957,0,1.408-.927,1.8-1.741.27-.55.545-1.122.858-1.122a.549.549,0,0,1,.2.05,15.748,15.748,0,0,0,6.784,1.56c4.671,0,8.96-2.126,13.108-4.184.745-.369,1.51-.748,2.275-1.114a5.645,5.645,0,0,0,1.606,3.667,9.348,9.348,0,0,0,6.751,2.468,13.062,13.062,0,0,0,10.06-4.679c.7.325,1.455.729,2.25,1.155,2.379,1.274,5.078,2.718,7.485,2.718a5.065,5.065,0,0,0,1.725-.286l.077-.028.058-.058c2.611-2.556,3.384-8.811,1.623-13.127-1.065-2.611-2.891-4.049-5.141-4.049a6.4,6.4,0,0,0-1.818.283l-.022.006c-3.155,1.142-4.533,3.92-5.862,6.608a14.013,14.013,0,0,1-3.362,4.954c-.413.094-.853.2-1.315.314a25.511,25.511,0,0,1-5.76.952c-2.476,0-3.964-.886-4.643-2.773,7.771-1.3,9.452-2.1,10.836-7.37l.005-.025v-.025a1.363,1.363,0,0,0-.25-1.114,1.13,1.13,0,0,0-.889-.344,6.107,6.107,0,0,0-1.821.443,7.519,7.519,0,0,1-.732.234,17.97,17.97,0,0,1-3.653.355c-3.876,0-7.856-1.045-11.708-2.058-1.411-.371-2.748-.721-4.071-1.021a5.079,5.079,0,0,0-1.623-.261,6.03,6.03,0,0,0-4.7,2.355,4.3,4.3,0,0,0-.721,3.89,1.422,1.422,0,0,0,.429.668,2.257,2.257,0,0,0,1.524.608,4.053,4.053,0,0,0,2.366-.922,4.419,4.419,0,0,1,.468-.33,4.682,4.682,0,0,1,2.311-.457,36.072,36.072,0,0,1,7.386,1.238c.71.168,1.395.327,2.022.462-7.4,3.8-12.89,5.647-16.764,5.647h0c-5.191,0-7.667-3.268-7.788-10.269.025-.8-.019-1.3-.327-1.615a1.339,1.339,0,0,0-1-.322,7.016,7.016,0,0,0-.7.044c-5.658.553-9.719,2.916-12.417,7.224l-.014.022-.011.022c-.845,1.86-4.418,3.3-6.927,3.3-1.1,0-1.871-.281-2.115-.773a7.241,7.241,0,0,1,.272-1.147,5.955,5.955,0,0,0,.27-1.164,7.422,7.422,0,0,0-.41-2.611,9.217,9.217,0,0,0-3.1-4.231,8.6,8.6,0,0,0-5.375-1.84c-1.744,0-5.287.525-9.433,4.035-.578.49-1.177,1.059-1.816,1.664-2.311,2.2-4.93,4.685-7.815,4.685a4.966,4.966,0,0,1-.605-.039,5.944,5.944,0,0,1-3.359-1.829,5.348,5.348,0,0,1,.047-1.7,2.814,2.814,0,0,0-.2-2.1,1.117,1.117,0,0,0-.847-.377h-.072a1.756,1.756,0,0,0-1.593,1.087c-1.29,2.976-5.59,6.434-9.2,6.434a3.9,3.9,0,0,1-2.539-.839,2.644,2.644,0,0,1-.875-1.45c-.371-1.579-.649-3.947-.941-6.453-.809-6.935-1.436-11.146-3.318-11.146-.913,0-1.865,1.1-3,3.477a2.053,2.053,0,0,0-.077,1.568,6.288,6.288,0,0,1,.5,2.245h-.008c-5.279,0-9.059,1.516-11.237,4.506A12.774,12.774,0,0,0,1.5,38.37a8.81,8.81,0,0,0-.567,4.08c.3,4.4,3.639,5.964,6.671,5.964Zm5.3-12.373a7.188,7.188,0,0,1,1.507.157,6.118,6.118,0,0,1-1.827,4.115A9.038,9.038,0,0,1,6.544,43a4.487,4.487,0,0,1-1.4-.2,3.442,3.442,0,0,1,.6-3.031,9.12,9.12,0,0,1,7.169-3.722Zm33.9,7.559c2.9-2.517,7.378-5.191,11.435-5.191a7.337,7.337,0,0,1,6.509,3.678,47.57,47.57,0,0,1-13.4,1.615C49.991,43.707,48.527,43.674,46.811,43.605Zm41.323.756a23.913,23.913,0,0,1-7.2-3.551c.627-.209,1.188-.4,1.7-.575a13.615,13.615,0,0,1,3.309-.911c.85,0,1.065.685,1.739,3.3.132.52.281,1.089.457,1.733ZM136.3,41.369c.864-1.714,1.9-2.616,3.007-2.616,1.882,0,3.722,2.655,4.035,5.7a29.548,29.548,0,0,1-7.045-3.081Z" transform="translate(-0.642 -17.478)" fill="#371a08"/>
    <path id="Path_34" data-name="Path 34" d="M4.893,339.73,1.76,350.56h1.7l.666-2.712H7.295l.682,2.712H9.8L6.907,339.73Zm-.4,6.707,1.232-4.952,1.219,4.952Z" transform="translate(-1.283 -246.275)" fill="#371a08"/>
    <path id="Path_35" data-name="Path 35" d="M46.357,342.814a3.074,3.074,0,0,0-1.04-2.468,3.8,3.8,0,0,0-2.418-.616H39.65v10.83h1.785v-4.531h1.689l1.689,4.531h1.931l-2.047-4.9a2.926,2.926,0,0,0,1.656-2.842Zm-3.54,1.835H41.438v-3.54h1.378c1.169,0,1.769.569,1.769,1.689A1.639,1.639,0,0,1,42.816,344.649Z" transform="translate(-28.75 -246.275)" fill="#371a08"/>
    <path id="Path_36" data-name="Path 36" d="M82.017,342.814a3.074,3.074,0,0,0-1.04-2.468,3.8,3.8,0,0,0-2.418-.616H75.31v10.83H77.1v-4.531h1.689l1.689,4.531H82.4l-2.047-4.9a2.922,2.922,0,0,0,1.656-2.842Zm-3.54,1.835H77.1v-3.54h1.378c1.169,0,1.769.569,1.769,1.689A1.639,1.639,0,0,1,78.476,344.649Z" transform="translate(-54.6 -246.275)" fill="#371a08"/>
    <rect id="Rectangle_43" data-name="Rectangle 43" width="1.785" height="10.83" transform="translate(30.519 93.455)" fill="#371a08"/>
    <path id="Path_37" data-name="Path 37" d="M129.418,344.241l-1.981-4.511H125.49l2.872,6.25v4.58h1.785v-4.58l3-6.25h-1.7Z" transform="translate(-90.976 -246.275)" fill="#371a08"/>
    <path id="Path_38" data-name="Path 38" d="M157.536,339.73,154.4,350.56h1.706l.666-2.712h3.166l.679,2.712h1.818l-2.891-10.83H157.53Zm-.407,6.707,1.232-4.952,1.219,4.952Z" transform="translate(-111.934 -246.275)" fill="#371a08"/>
    <path id="Path_39" data-name="Path 39" d="M197.894,340.558a5.252,5.252,0,0,0-3.15-.828H192.31v10.83h2.567a4.768,4.768,0,0,0,2.663-.633c1.381-.861,2.176-2.663,2.176-4.886a5.447,5.447,0,0,0-1.818-4.481Zm-3.051,8.572H194.1v-7.972h.748c1.948,0,2.971,1.364,2.971,3.978S196.808,349.13,194.844,349.13Z" transform="translate(-139.415 -246.275)" fill="#371a08"/>
    <path id="Path_40" data-name="Path 40" d="M235.187,344.228h-3.2v-4.5H230.2v10.83h1.788v-4.825h3.2v4.825h1.785V339.73h-1.785Z" transform="translate(-166.882 -246.275)" fill="#371a08"/>
    <path id="Path_41" data-name="Path 41" d="M305.334,342.814a3.074,3.074,0,0,0-1.04-2.468,3.8,3.8,0,0,0-2.418-.616H298.63v10.83h1.785v-4.531H302.1l1.689,4.531h1.931l-2.047-4.9a2.926,2.926,0,0,0,1.656-2.842Zm-3.54,1.835h-1.378v-3.54h1.378c1.169,0,1.769.569,1.769,1.689A1.639,1.639,0,0,1,301.793,344.649Z" transform="translate(-216.488 -246.275)" fill="#371a08"/>
    <path id="Path_42" data-name="Path 42" d="M336.641,339.02c-2.613,0-3.961,1.915-3.961,5.65s1.364,5.57,3.914,5.57,3.865-1.948,3.865-5.6-1.348-5.617-3.815-5.617Zm-.063,9.741c-1.381,0-2.014-1.3-2.014-4.14s.633-4.124,2.03-4.124,1.981,1.331,1.981,4.124S337.942,348.761,336.578,348.761Z" transform="translate(-241.172 -245.761)" fill="#371a08"/>
    <path id="Path_43" data-name="Path 43" d="M370.4,339.73l-3.133,10.83h1.706l.666-2.712h3.166l.682,2.712h1.818l-2.891-10.83Zm-.4,6.707,1.232-4.952,1.219,4.952Z" transform="translate(-266.246 -246.275)" fill="#371a08"/>
    <path id="Path_44" data-name="Path 44" d="M407.466,343.671a5.463,5.463,0,0,1-1.722-.845,1.267,1.267,0,0,1-.437-.957,1.361,1.361,0,0,1,1.477-1.362c.974,0,1.494.454,1.9,1.673l1.527-.536a3.5,3.5,0,0,0-.974-1.769,3.294,3.294,0,0,0-2.355-.845,3.056,3.056,0,0,0-3.329,3.053,2.9,2.9,0,0,0,.974,2.209,6.13,6.13,0,0,0,2.291,1.153c1.381.52,1.835.957,1.835,1.769a1.568,1.568,0,0,1-1.752,1.56c-1.186,0-1.9-.649-2.192-2l-1.59.454a3.629,3.629,0,0,0,1.007,2,3.792,3.792,0,0,0,2.745,1.023,3.305,3.305,0,0,0,3.62-3.279,2.892,2.892,0,0,0-.957-2.209,6.212,6.212,0,0,0-2.063-1.089Z" transform="translate(-292.235 -245.768)" fill="#371a08"/>
    <path id="Path_45" data-name="Path 45" d="M436.45,341.254h2.388v9.306h1.785v-9.306h2.437V339.73h-6.61Z" transform="translate(-316.396 -246.275)" fill="#371a08"/>
    <path id="Path_46" data-name="Path 46" d="M470.765,345.7h3.458v-1.43h-3.458v-3.117h4.418V339.73h-6.2v10.83h6.266V349.1h-4.481Z" transform="translate(-339.978 -246.275)" fill="#371a08"/>
    <path id="Path_47" data-name="Path 47" d="M507.564,342.814a3.074,3.074,0,0,0-1.04-2.468,3.8,3.8,0,0,0-2.418-.616H500.86v10.83h1.785v-4.531h1.689l1.689,4.531h1.931l-2.047-4.9a2.926,2.926,0,0,0,1.656-2.842Zm-3.54,1.835h-1.378v-3.54h1.378c1.169,0,1.769.569,1.769,1.689A1.639,1.639,0,0,1,504.023,344.649Z" transform="translate(-363.088 -246.275)" fill="#371a08"/>
  </g>
</svg>
