<svg xmlns="http://www.w3.org/2000/svg" width="49.136" height="34.928" viewBox="0 0 49.136 34.928">
  <g id="RR_new_logo" data-name="RR new logo" transform="translate(0.009 0)">
    <path id="Path_26" data-name="Path 26" d="M.722,198.877a3.157,3.157,0,0,0,1.321,1.015,5.609,5.609,0,0,0,2.007.349,5.827,5.827,0,0,0,3.211-.9,3.716,3.716,0,0,0,1.691-2.73,16.109,16.109,0,0,0,4.306.585h0a14.673,14.673,0,0,0,4.984-.842l.006,0,.006,0a2.23,2.23,0,0,0,1.278-2.627,3.458,3.458,0,0,0-1.056-1.744,2.867,2.867,0,0,0-1.892-.773,2.469,2.469,0,0,0-.789.131,13.013,13.013,0,0,0-4.053,2.533c-.38.309-.773.628-1.167.924a3.783,3.783,0,0,1-.381.021h0c-1.127,0-1.306-.62-1.553-1.476a6.051,6.051,0,0,0-.358-1.008l-.075-.155-.123.122a3.577,3.577,0,0,0-1.225,2.07,4.235,4.235,0,0,0,.319,1.4,2.047,2.047,0,0,1,.107,1.628,2.032,2.032,0,0,1-1.371.855l-.129.038a5.2,5.2,0,0,1-1.541.261,5.46,5.46,0,0,1-1.134-.131,1.951,1.951,0,0,1-1.184-.923,1.917,1.917,0,0,1-.143-.4,7.563,7.563,0,0,1,.11-2.621c.029-.18.056-.349.083-.508a3.69,3.69,0,0,0,.1-1.571.778.778,0,0,0-.339-.349l-.132-.085-.065.109a12.067,12.067,0,0,0-1.3,2.959,4.517,4.517,0,0,0,.073,3.166,2.921,2.921,0,0,0,.4.688Zm11.668-3.8a6.6,6.6,0,0,1,3.837-1.744,2.5,2.5,0,0,1,2.109,1.1,18.983,18.983,0,0,1-4.763.74,6.488,6.488,0,0,1-1.182-.094Z" transform="translate(0 -173.617)" fill="#342110"/>
    <path id="Path_27" data-name="Path 27" d="M238,155.592a41.481,41.481,0,0,0,4.455-.2l.056-.006.032-.047a4.2,4.2,0,0,0,.692-2.705,4.943,4.943,0,0,0-.974-2.614.34.34,0,0,0-.272-.134.348.348,0,0,0-.29.154c-.825,1.231-.4,2.282.126,3.378a10.954,10.954,0,0,0-1.522-.085c-.885,0-1.91.053-3,.109-1.172.061-2.384.123-3.51.123h0c-1.767,0-4.156-.136-4.5-1.307a17.876,17.876,0,0,1-.281-2.719c-.166-2.6-.308-4.18-.875-4.18-.247,0-.489.3-.785.982a.853.853,0,0,0-.058.49,18.925,18.925,0,0,1,.184,2.466,14.166,14.166,0,0,0,.539,4.169,2.86,2.86,0,0,0,2.913,2.081c.509-.014,1.05-.021,1.653-.021.9,0,1.813.016,2.7.03s1.812.03,2.713.03Z" transform="translate(-206.395 -131.993)" fill="#342110"/>
    <path id="Path_28" data-name="Path 28" d="M386.426,139.639c-.431,0-.968,0-1.4-2.2a.228.228,0,0,0-.223-.183.225.225,0,0,0-.166.073,2.533,2.533,0,0,0-.067,3.424c.139.787.224,1.589.306,2.366.077.733.157,1.49.284,2.237v.006a.748.748,0,0,1-.062.64.593.593,0,0,1-.469.175,2.748,2.748,0,0,1-1.469-.576,1.857,1.857,0,0,1-.856-1.257.389.389,0,0,0-.336-.376l-.041,0c-.248,0-.455.233-.58.656-.234.785-.161,2.19.584,2.677a.359.359,0,0,1,.166.344c-.176,1.244-1.849,2.576-4.061,2.576a3.468,3.468,0,0,1-1.3-.228l-.01,0-.011,0a.467.467,0,0,0-.1-.011.31.31,0,0,0-.287.163.353.353,0,0,0,.05.368l.009.013.013.01a5.049,5.049,0,0,0,3.081,1.3c1.61,0,2.917-1.223,3.679-3.445a.76.76,0,0,1,.658-.241,5.143,5.143,0,0,1,.578.046,5.444,5.444,0,0,0,.6.047.909.909,0,0,0,1-.675,6.567,6.567,0,0,0,.432-3.627,4.96,4.96,0,0,1,.621-3.581.4.4,0,0,0-.005-.489.7.7,0,0,0-.622-.226Z" transform="translate(-341.7 -124.638)" fill="#342110"/>
    <path id="Path_29" data-name="Path 29" d="M512.647,148.815c-.154-1.521-.349-3.066-.537-4.559-.109-.865-.222-1.761-.326-2.641v-.006a.3.3,0,0,0-.294-.279.339.339,0,0,0-.29.18c-1.15,1.883-.732,4.055-.327,6.157a14.712,14.712,0,0,1,.4,3.854l-.006.068.055.041a.4.4,0,0,0,.245.09c.794,0,1.076-2.853,1.079-2.882v-.022Z" transform="translate(-463.521 -128.333)" fill="#342110"/>
    <path id="Path_30" data-name="Path 30" d="M317.525,267.14l-.027-.013h-.029a.979.979,0,0,0-.856.446c-.092.12-.136.172-.225.172a2.524,2.524,0,0,1-1.053-.615l-.016-.013-.02-.006a.547.547,0,0,0-.175-.03c-.373,0-.533.418-.674.787-.037.1-.072.189-.109.269a.561.561,0,0,0,.067.584,1.914,1.914,0,0,0,1.34.745.875.875,0,0,0,.848-.635,3.924,3.924,0,0,1,.452.279,1.914,1.914,0,0,0,1,.437.916.916,0,0,0,.124-.009l.044-.007.03-.034a1.519,1.519,0,0,0,.517-1.25C318.655,267.74,318.077,267.4,317.525,267.14Z" transform="translate(-285.396 -242.52)" fill="#342110"/>
    <path id="Path_31" data-name="Path 31" d="M103.131,165.957l0,.01v.011c-.07.622.752,1.018,1.249,1.2a.585.585,0,0,0,.557-.085,1.937,1.937,0,0,0,.693-1.043.378.378,0,0,0-.094-.388,2.258,2.258,0,0,0-1.4-.8c-.457,0-.8.37-1.005,1.1Z" transform="translate(-93.65 -149.7)" fill="#342110"/>
    <path id="Path_32" data-name="Path 32" d="M3.311,2.386h0a.874.874,0,0,0,.847-.635,4.005,4.005,0,0,1,.452.279,1.914,1.914,0,0,0,.995.437.789.789,0,0,0,.124-.01l.044-.007L5.8,2.415a1.523,1.523,0,0,0,.518-1.25C6.216.66,5.639.323,5.087.06L5.06.047H5.031a.979.979,0,0,0-.856.446c-.092.12-.136.172-.225.172A2.507,2.507,0,0,1,2.9.05L2.881.037,2.861.03A.546.546,0,0,0,2.686,0c-.373,0-.532.418-.673.787-.038.1-.074.194-.112.276a.547.547,0,0,0,.065.57,1.914,1.914,0,0,0,1.345.752Z" transform="translate(-1.688 0)" fill="#342110"/>
    <path id="Path_33" data-name="Path 33" d="M3.127,32.236a3.347,3.347,0,0,0,1.29-.266,4.459,4.459,0,0,0,1.759-1.886c.246,1.4,1.157,2.766,2.524,2.766a2.43,2.43,0,0,0,1.078-.273l.006,0a5.381,5.381,0,0,0,1.532-1.185c.111-.122.166-.181.212-.181a2.064,2.064,0,0,1,.606.359c.27.187.632.436,1.152.767a2.773,2.773,0,0,0-.731,1.938.317.317,0,0,0,.314.26.509.509,0,0,0,.081-.007.515.515,0,0,0,.391-.358c.356-1.138,1.387-1.644,3.343-1.644.846,0,1.8.092,2.722.18.95.092,1.931.186,2.83.186,1.405,0,3.088-.192,3.814-1.648a6.313,6.313,0,0,0,2.832,1.543,13.551,13.551,0,0,1,1.447.567.6.6,0,0,0,.262.067c.32,0,.471-.31.6-.582.09-.184.182-.375.287-.375a.183.183,0,0,1,.068.017A5.264,5.264,0,0,0,33.817,33,10.087,10.087,0,0,0,38.2,31.6c.249-.123.5-.25.76-.372a1.887,1.887,0,0,0,.537,1.226,3.125,3.125,0,0,0,2.257.825,4.367,4.367,0,0,0,3.363-1.564c.234.109.486.244.752.386a5.924,5.924,0,0,0,2.5.909,1.693,1.693,0,0,0,.577-.1l.026-.009.019-.019a4.549,4.549,0,0,0,.543-4.388,1.88,1.88,0,0,0-1.719-1.354,2.139,2.139,0,0,0-.608.095l-.007,0a3.784,3.784,0,0,0-1.96,2.209A4.685,4.685,0,0,1,44.118,31.1c-.138.031-.285.067-.44.1a8.528,8.528,0,0,1-1.926.318A1.436,1.436,0,0,1,40.2,30.6c2.6-.435,3.16-.7,3.622-2.464l0-.008V28.12a.456.456,0,0,0-.084-.372.378.378,0,0,0-.3-.115,2.041,2.041,0,0,0-.609.148,2.514,2.514,0,0,1-.245.078,6.007,6.007,0,0,1-1.221.119,15.786,15.786,0,0,1-3.914-.688c-.472-.124-.919-.241-1.361-.341a1.7,1.7,0,0,0-.543-.087,2.016,2.016,0,0,0-1.57.787,1.437,1.437,0,0,0-.241,1.3.475.475,0,0,0,.143.223.754.754,0,0,0,.509.2,1.355,1.355,0,0,0,.791-.308,1.477,1.477,0,0,1,.156-.11,1.565,1.565,0,0,1,.772-.153,12.059,12.059,0,0,1,2.469.414c.237.056.466.109.676.154-2.474,1.27-4.309,1.888-5.6,1.888h0c-1.735,0-2.563-1.092-2.6-3.433.008-.269-.006-.433-.109-.54a.448.448,0,0,0-.335-.108,2.346,2.346,0,0,0-.235.015A5.149,5.149,0,0,0,26.22,29.61l0,.007,0,.007a2.878,2.878,0,0,1-2.316,1.1c-.369,0-.625-.094-.707-.258a2.421,2.421,0,0,1,.091-.383,1.991,1.991,0,0,0,.09-.389,2.481,2.481,0,0,0-.137-.873A3.081,3.081,0,0,0,22.2,27.41a2.876,2.876,0,0,0-1.8-.615,4.949,4.949,0,0,0-3.153,1.349c-.193.164-.394.354-.607.556-.772.734-1.648,1.566-2.613,1.566a1.66,1.66,0,0,1-.2-.013,1.987,1.987,0,0,1-1.123-.612,1.788,1.788,0,0,1,.016-.568.941.941,0,0,0-.068-.7.374.374,0,0,0-.283-.126h-.024a.587.587,0,0,0-.532.363,3.962,3.962,0,0,1-3.076,2.151,1.3,1.3,0,0,1-.849-.28.884.884,0,0,1-.292-.485c-.124-.528-.217-1.32-.315-2.157-.27-2.318-.48-3.726-1.109-3.726-.305,0-.623.369-1,1.162a.686.686,0,0,0-.026.524,2.1,2.1,0,0,1,.167.75h0A4.359,4.359,0,0,0,1.55,28.053a4.27,4.27,0,0,0-.463.824A2.945,2.945,0,0,0,.9,30.241a2.063,2.063,0,0,0,2.23,1.994ZM4.9,28.1a2.4,2.4,0,0,1,.5.052,2.045,2.045,0,0,1-.611,1.376,3.021,3.021,0,0,1-2.021.9,1.5,1.5,0,0,1-.467-.067,1.151,1.151,0,0,1,.2-1.013A3.049,3.049,0,0,1,4.9,28.1Zm11.333,2.527a6.517,6.517,0,0,1,3.823-1.735,2.453,2.453,0,0,1,2.176,1.229,15.9,15.9,0,0,1-4.478.54C17.295,30.661,16.806,30.65,16.232,30.627Zm13.814.253a7.994,7.994,0,0,1-2.408-1.187c.21-.07.4-.133.567-.192a4.551,4.551,0,0,1,1.106-.3c.284,0,.356.229.581,1.1.044.174.094.364.153.579Zm16.1-1c.289-.573.635-.875,1.005-.875.629,0,1.244.887,1.349,1.905a9.878,9.878,0,0,1-2.355-1.03Z" transform="translate(-0.804 -21.893)" fill="#342110"/>
    <path id="Path_34" data-name="Path 34" d="M2.807,339.73,1.76,343.35h.569l.223-.907H3.61l.228.907h.608l-.966-3.62Zm-.135,2.242.412-1.655.407,1.655Z" transform="translate(-1.607 -308.489)" fill="#342110"/>
    <path id="Path_35" data-name="Path 35" d="M41.892,340.761a1.028,1.028,0,0,0-.348-.825,1.269,1.269,0,0,0-.808-.206H39.65v3.62h.6v-1.515h.565l.565,1.515h.646l-.684-1.639a.978.978,0,0,0,.554-.95Zm-1.184.613h-.461v-1.184h.461c.391,0,.591.19.591.565A.548.548,0,0,1,40.708,341.374Z" transform="translate(-36.012 -308.489)" fill="#342110"/>
    <path id="Path_36" data-name="Path 36" d="M77.552,340.761a1.028,1.028,0,0,0-.348-.825,1.269,1.269,0,0,0-.808-.206H75.31v3.62h.6v-1.515h.565l.565,1.515h.646L77,341.712a.977.977,0,0,0,.554-.95Zm-1.184.613h-.461v-1.184h.461c.391,0,.591.19.591.565A.548.548,0,0,1,76.368,341.374Z" transform="translate(-68.393 -308.489)" fill="#342110"/>
    <rect id="Rectangle_43" data-name="Rectangle 43" width="0.597" height="3.62" transform="translate(10.196 31.241)" fill="#342110"/>
    <path id="Path_37" data-name="Path 37" d="M126.8,341.238l-.662-1.508h-.651l.96,2.089v1.531h.6v-1.531l1-2.089h-.569Z" transform="translate(-113.959 -308.489)" fill="#342110"/>
    <path id="Path_38" data-name="Path 38" d="M155.448,339.73l-1.048,3.62h.57l.223-.907h1.058l.227.907h.608l-.966-3.62h-.673Zm-.136,2.242.412-1.655.407,1.655Z" transform="translate(-140.21 -308.489)" fill="#342110"/>
    <path id="Path_39" data-name="Path 39" d="M194.177,340.007a1.756,1.756,0,0,0-1.053-.277h-.814v3.62h.858a1.594,1.594,0,0,0,.89-.211,1.855,1.855,0,0,0,.727-1.633,1.821,1.821,0,0,0-.608-1.5Zm-1.02,2.865h-.25v-2.665h.25c.651,0,.993.456.993,1.33S193.814,342.872,193.157,342.872Z" transform="translate(-174.634 -308.489)" fill="#342110"/>
    <path id="Path_40" data-name="Path 40" d="M231.867,341.234H230.8v-1.5h-.6v3.62h.6v-1.613h1.069v1.613h.6v-3.62h-.6Z" transform="translate(-209.04 -308.489)" fill="#342110"/>
    <path id="Path_41" data-name="Path 41" d="M300.871,340.761a1.028,1.028,0,0,0-.348-.825,1.269,1.269,0,0,0-.808-.206H298.63v3.62h.6v-1.515h.565l.565,1.515H301l-.684-1.639a.978.978,0,0,0,.554-.95Zm-1.184.613h-.461v-1.184h.461c.391,0,.591.19.591.565A.548.548,0,0,1,299.688,341.374Z" transform="translate(-271.177 -308.489)" fill="#342110"/>
    <path id="Path_42" data-name="Path 42" d="M334,339.02c-.874,0-1.324.64-1.324,1.889s.456,1.862,1.309,1.862,1.292-.651,1.292-1.872-.451-1.878-1.275-1.878Zm-.021,3.256c-.462,0-.673-.434-.673-1.384s.212-1.378.679-1.378.662.445.662,1.378S334.439,342.276,333.983,342.276Z" transform="translate(-302.096 -307.844)" fill="#342110"/>
    <path id="Path_43" data-name="Path 43" d="M368.317,339.73l-1.047,3.62h.57l.223-.907h1.058l.228.907h.608l-.966-3.62Zm-.135,2.242.412-1.655.407,1.655Z" transform="translate(-333.505 -308.489)" fill="#342110"/>
    <path id="Path_44" data-name="Path 44" d="M404.573,340.581A1.825,1.825,0,0,1,404,340.3a.424.424,0,0,1-.146-.32.455.455,0,0,1,.494-.455c.326,0,.5.152.635.559l.51-.179a1.171,1.171,0,0,0-.326-.591,1.1,1.1,0,0,0-.787-.282,1.022,1.022,0,0,0-1.113,1.021.969.969,0,0,0,.326.738,2.049,2.049,0,0,0,.766.385c.462.174.613.32.613.591a.524.524,0,0,1-.586.521c-.4,0-.635-.217-.733-.668l-.532.152a1.213,1.213,0,0,0,.337.668,1.267,1.267,0,0,0,.918.342,1.1,1.1,0,0,0,1.21-1.1.967.967,0,0,0-.32-.738,2.076,2.076,0,0,0-.69-.364Z" transform="translate(-366.058 -307.853)" fill="#342110"/>
    <path id="Path_45" data-name="Path 45" d="M436.45,340.239h.8v3.111h.6v-3.111h.815v-.509h-2.21Z" transform="translate(-396.323 -308.489)" fill="#342110"/>
    <path id="Path_46" data-name="Path 46" d="M469.577,341.727h1.156v-.478h-1.156v-1.042h1.477v-.477H468.98v3.62h2.095v-.488h-1.5Z" transform="translate(-425.862 -308.489)" fill="#342110"/>
    <path id="Path_47" data-name="Path 47" d="M503.1,340.761a1.028,1.028,0,0,0-.348-.825,1.269,1.269,0,0,0-.808-.206H500.86v3.62h.6v-1.515h.565l.565,1.515h.646l-.684-1.639a.978.978,0,0,0,.554-.95Zm-1.184.613h-.461v-1.184h.461c.391,0,.591.19.591.565A.548.548,0,0,1,501.917,341.374Z" transform="translate(-454.81 -308.489)" fill="#342110"/>
  </g>
</svg>
