<svg xmlns="http://www.w3.org/2000/svg" width="38.936" height="38.937" viewBox="0 0 38.936 38.937">
  <path id="Icon_awesome-phone-alt" data-name="Icon awesome-phone-alt" d="M37.825,27.514l-8.517-3.65a1.825,1.825,0,0,0-2.129.525L23.407,29A28.188,28.188,0,0,1,9.932,15.522L14.54,11.75a1.821,1.821,0,0,0,.525-2.129L11.415,1.1A1.837,1.837,0,0,0,9.323.046L1.414,1.872A1.825,1.825,0,0,0,0,3.65,35.282,35.282,0,0,0,35.286,38.937a1.825,1.825,0,0,0,1.78-1.415l1.825-7.909a1.847,1.847,0,0,0-1.065-2.1Z" fill="#371a08"/>
</svg>
