<svg id="Group_69" data-name="Group 69" xmlns="http://www.w3.org/2000/svg" xmlns:xlink="http://www.w3.org/1999/xlink" width="47.926" height="70.929" viewBox="0 0 47.926 70.929">
  <defs>
    <clipPath id="clip-path">
      <rect id="Rectangle_89" data-name="Rectangle 89" width="47.926" height="70.929" fill="#342110"/>
    </clipPath>
  </defs>
  <g id="Group_68" data-name="Group 68" clip-path="url(#clip-path)">
    <path id="Path_77" data-name="Path 77" d="M.016,65.216a1.752,1.752,0,0,0,.213,1.147c.122.125.458.283,1.374.263,5.429-.057,10.946-.048,16.282-.039,2.015,0,4.028,0,6.043.006l5.547,0c5.626,0,11.444-.005,17.167.015.777,0,1.037-.081,1.106-.151a.967.967,0,0,0,.1-.581c-.046-1.929-.008-3.882.029-5.77a67.918,67.918,0,0,0-.368-10.875A23,23,0,0,0,37.448,33.161c-.1-.069-.2-.149-.309-.234s-.226-.177-.335-.249c-.175.269-.357.536-.539.8a6.825,6.825,0,0,0-1.637,3.914c.049,3.352.085,7.316-.029,11.3-.175,6.1-4.559,10.557-10.426,10.594h-.089c-6.151,0-10.318-4.06-10.629-10.366-.045-.909-.024-1.82,0-2.7a28.226,28.226,0,0,0-.045-3.174,28.274,28.274,0,0,1-.068-2.872c.025-2.41.049-4.687-1.543-6.654-.48-.595-.655-.708-.716-.722,0,0-.149-.006-.583.3A23.34,23.34,0,0,0,.314,49.913,70.542,70.542,0,0,0,.03,59.321c.028,1.929.057,3.924-.014,5.895" transform="translate(0 -19.769)" fill="#342110"/>
    <path id="Path_78" data-name="Path 78" d="M47.746,125.918c-.039-.038-.22-.17-.956-.157-5.6.05-11.289.043-16.793.036q-2.456,0-4.913,0v.006H24.1q-3,0-6.009.006c-5.468.007-11.122.015-16.685-.036H1.341c-.767,0-1.017.133-1.1.214s-.206.312-.2,1.01c.034,3.441.028,6.938.023,10.32,0,2.545-.009,5.09,0,7.635C.078,146.731.356,147,2.194,147c14.888.013,29.554.013,43.592,0,1.837,0,2.07-.235,2.079-2.077.013-2.675.01-5.351.007-8.026,0-3.318-.007-6.749.021-10.125.006-.666-.122-.829-.148-.854" transform="translate(-0.026 -76.081)" fill="#342110"/>
    <path id="Path_79" data-name="Path 79" d="M32.3,22.569a7.093,7.093,0,0,0,6.1-3.7c1.877-3.072,3.7-6.254,5.47-9.331q1.274-2.219,2.557-4.433c.055-.1.108-.193.16-.29A2.815,2.815,0,0,1,49.022,3a2.1,2.1,0,0,0,1.451-.5,1.462,1.462,0,0,0,.255-1.122C50.663.674,50.435,0,48.591,0Q42.756.022,36.919.009L30.339,0q-2.211,0-4.422,0Q24.57,0,23.223,0H22.166c-2.141,0-4.331,0-6.487.038A1.57,1.57,0,0,0,13.92,1.459a1.347,1.347,0,0,0,.288,1.035,1.606,1.606,0,0,0,1.171.461,3.455,3.455,0,0,1,2.962,2.152l.03.053q3.91,6.732,7.8,13.474A7.234,7.234,0,0,0,32.3,22.569" transform="translate(-8.418)" fill="#342110"/>
    <path id="Path_80" data-name="Path 80" d="M48.7,57.879a9.34,9.34,0,0,1-7.8-3.963c-.217,3.524-.092,8.953.271,10.079a7.809,7.809,0,0,0,14.695.6,7.669,7.669,0,0,0,.568-3.073c-.011-2.38-.009-4.762-.007-7.142v-.457A9.382,9.382,0,0,1,48.7,57.879" transform="translate(-24.678 -32.618)" fill="#342110"/>
  </g>
</svg>
