<svg xmlns="http://www.w3.org/2000/svg" width="29.986" height="28.76" viewBox="0 0 29.986 28.76">
  <g id="Icon_feather-shopping-cart" data-name="Icon feather-shopping-cart" transform="translate(1.5 1.5)">
    <path id="Path_13" data-name="Path 13" d="M14.453,31.227A1.227,1.227,0,1,1,13.227,30,1.227,1.227,0,0,1,14.453,31.227Z" transform="translate(-3.413 -6.694)" fill="none" stroke="#fff" stroke-linecap="round" stroke-linejoin="round" stroke-width="3"/>
    <path id="Path_14" data-name="Path 14" d="M30.953,31.227A1.227,1.227,0,1,1,29.727,30,1.227,1.227,0,0,1,30.953,31.227Z" transform="translate(-6.42 -6.694)" fill="none" stroke="#fff" stroke-linecap="round" stroke-linejoin="round" stroke-width="3"/>
    <path id="Path_15" data-name="Path 15" d="M1.5,1.5H6.407L9.694,17.925A2.453,2.453,0,0,0,12.147,19.9H24.07a2.453,2.453,0,0,0,2.453-1.975L28.486,7.633H7.633" transform="translate(-1.5 -1.5)" fill="none" stroke="#fff" stroke-linecap="round" stroke-linejoin="round" stroke-width="3"/>
  </g>
</svg>
