<svg id="Group_70" data-name="Group 70" xmlns="http://www.w3.org/2000/svg" xmlns:xlink="http://www.w3.org/1999/xlink" width="62.326" height="53.435" viewBox="0 0 62.326 53.435">
  <defs>
    <clipPath id="clip-path">
      <rect id="Rectangle_69" data-name="Rectangle 69" width="62.326" height="53.435" fill="#342110"/>
    </clipPath>
  </defs>
  <g id="Group_19" data-name="Group 19" clip-path="url(#clip-path)">
    <path id="Path_62" data-name="Path 62" d="M0,30.889a24.9,24.9,0,0,1,5.742-15.5A38.865,38.865,0,0,1,18.087,5.339,42.594,42.594,0,0,1,32.433.38C39.7-.649,46.585.312,52.827,4.452a22.457,22.457,0,0,1,2.4,1.88A2.346,2.346,0,0,1,54.2,10.522,46.526,46.526,0,0,0,29.954,24.787,42.923,42.923,0,0,1,6.682,38.742c-.97.213-1.95.383-2.93.539a2.268,2.268,0,0,1-2.689-1.638A20.237,20.237,0,0,1,0,30.889" transform="translate(0 0)" fill="#342110"/>
    <path id="Path_63" data-name="Path 63" d="M62.779,140.712a26.575,26.575,0,0,1-16.3-5.137c-.518-.387-1.01-.81-1.5-1.238a2.255,2.255,0,0,1-.819-2.355,2.283,2.283,0,0,1,1.85-1.766,46.362,46.362,0,0,0,8.736-2.911,45.466,45.466,0,0,0,15.475-11.278,43.26,43.26,0,0,1,25.55-14.482,5.247,5.247,0,0,1,1.372-.143,2.351,2.351,0,0,1,2.117,1.82,21.866,21.866,0,0,1,.072,12.977c-1.859,6.246-5.713,11.1-10.785,15.021a45.109,45.109,0,0,1-20.724,9.131,26.321,26.321,0,0,1-5.046.361" transform="translate(-37.957 -87.29)" fill="#342110"/>
  </g>
</svg>
