<svg id="Group_72" data-name="Group 72" xmlns="http://www.w3.org/2000/svg" xmlns:xlink="http://www.w3.org/1999/xlink" width="76.186" height="78.7" viewBox="0 0 76.186 78.7">
  <defs>
    <clipPath id="clip-path">
      <rect id="Rectangle_66" data-name="Rectangle 66" width="76.186" height="78.7" fill="#342110"/>
    </clipPath>
  </defs>
  <g id="Group_15" data-name="Group 15" transform="translate(0 0)" clip-path="url(#clip-path)">
    <path id="Path_50" data-name="Path 50" d="M67.626,48.107A21.389,21.389,0,1,1,46.237,26.718,21.389,21.389,0,0,1,67.626,48.107" transform="translate(-8.144 -8.757)" fill="#342110"/>
    <path id="Path_51" data-name="Path 51" d="M52.772,14.98a2.689,2.689,0,0,1-2.689-2.689v-9.6a2.689,2.689,0,1,1,5.378,0v9.6a2.689,2.689,0,0,1-2.689,2.689" transform="translate(-16.415 0)" fill="#342110"/>
    <path id="Path_52" data-name="Path 52" d="M26.856,25.079a2.687,2.687,0,0,1-2.178-1.109L19.034,16.2a2.689,2.689,0,1,1,4.351-3.161l5.644,7.768a2.689,2.689,0,0,1-2.173,4.27" transform="translate(-6.07 -3.911)" fill="#342110"/>
    <path id="Path_53" data-name="Path 53" d="M11.823,48.484a2.677,2.677,0,0,1-.832-.132L1.859,45.385A2.689,2.689,0,0,1,3.52,40.27l9.133,2.967a2.689,2.689,0,0,1-.83,5.247" transform="translate(0 -13.155)" fill="#342110"/>
    <path id="Path_54" data-name="Path 54" d="M4.285,77.774a2.689,2.689,0,0,1-.83-5.247l9.132-2.967a2.689,2.689,0,0,1,1.662,5.115L5.117,77.642a2.676,2.676,0,0,1-.832.132" transform="translate(-0.523 -22.755)" fill="#342110"/>
    <path id="Path_55" data-name="Path 55" d="M25.386,101.764a2.689,2.689,0,0,1-2.173-4.27l5.644-7.768a2.689,2.689,0,0,1,4.351,3.161l-5.644,7.769a2.687,2.687,0,0,1-2.178,1.109" transform="translate(-7.44 -29.044)" fill="#342110"/>
    <path id="Path_56" data-name="Path 56" d="M57.936,109.766a2.69,2.69,0,0,1-2.689-2.689v-9.6a2.689,2.689,0,1,1,5.378,0v9.6a2.69,2.69,0,0,1-2.689,2.689" transform="translate(-18.107 -31.066)" fill="#342110"/>
    <path id="Path_57" data-name="Path 57" d="M86.748,98.728a2.687,2.687,0,0,1-2.177-1.109l-5.644-7.769a2.689,2.689,0,0,1,4.351-3.161l5.644,7.768a2.689,2.689,0,0,1-2.173,4.27" transform="translate(-25.7 -28.049)" fill="#342110"/>
    <path id="Path_58" data-name="Path 58" d="M103.565,72.863a2.676,2.676,0,0,1-.832-.132L93.6,69.764a2.689,2.689,0,1,1,1.662-5.115l9.132,2.967a2.689,2.689,0,0,1-.83,5.247" transform="translate(-30.069 -21.146)" fill="#342110"/>
    <path id="Path_59" data-name="Path 59" d="M92.836,43.572a2.689,2.689,0,0,1-.83-5.247l9.132-2.967a2.689,2.689,0,1,1,1.662,5.115L93.667,43.44a2.676,2.676,0,0,1-.832.132" transform="translate(-29.546 -11.546)" fill="#342110"/>
    <path id="Path_60" data-name="Path 60" d="M76.922,22.044a2.689,2.689,0,0,1-2.173-4.27l5.644-7.768a2.689,2.689,0,0,1,4.351,3.161L79.1,20.935a2.686,2.686,0,0,1-2.177,1.109" transform="translate(-24.33 -2.916)" fill="#342110"/>
  </g>
</svg>
