<svg xmlns="http://www.w3.org/2000/svg" width="36.465" height="36.465" viewBox="0 0 36.465 36.465">
  <path id="Icon_awesome-whatsapp" data-name="Icon awesome-whatsapp" d="M31,7.549A18.076,18.076,0,0,0,2.564,29.355L0,38.715,9.58,36.2a18.015,18.015,0,0,0,8.636,2.2h.008a18.244,18.244,0,0,0,18.241-18.07A18.141,18.141,0,0,0,31,7.549Zm-12.779,27.8a14.992,14.992,0,0,1-7.651-2.092l-.545-.326-5.681,1.49L5.86,28.883l-.358-.57a15.048,15.048,0,1,1,27.911-7.985A15.187,15.187,0,0,1,18.225,35.354ZM26.462,24.1c-.448-.228-2.67-1.319-3.085-1.465s-.716-.228-1.017.228-1.164,1.465-1.433,1.774-.529.342-.977.114c-2.654-1.327-4.4-2.369-6.145-5.372-.464-.8.464-.741,1.327-2.466a.837.837,0,0,0-.041-.79c-.114-.228-1.017-2.45-1.392-3.354-.366-.879-.741-.757-1.017-.773-.26-.016-.562-.016-.863-.016a1.673,1.673,0,0,0-1.2.562,5.074,5.074,0,0,0-1.579,3.769,8.845,8.845,0,0,0,1.84,4.672c.228.3,3.183,4.859,7.716,6.821,2.865,1.237,3.988,1.343,5.421,1.131.871-.13,2.67-1.091,3.044-2.149a3.776,3.776,0,0,0,.26-2.149C27.211,24.438,26.909,24.325,26.462,24.1Z" transform="translate(0 -2.25)" fill="#371a08"/>
</svg>
